<svg width="32" height="31" viewBox="0 0 32 31" fill="none" xmlns="http://www.w3.org/2000/svg">
<path d="M24 26.6667L21.5 29C19.6667 29.8334 16.3 30.3 17.5 25.5L21.5 18.3182M24 26.6667L29 22C30 21 31.4 18.4 29 16C26.6 13.6 23 10.3334 21.5 9.00003C19.6667 8.33336 16.3 8.10003 17.5 12.5L21.5 18.3182M24 26.6667C25.1428 25.6 23.8095 22.1111 23 20.5L21.5 18.3182" stroke="#000" stroke-width="2"/>
<path d="M7.32513 3.86371L9.82514 1.53037C11.6585 0.697045 15.0251 0.230395 13.8251 5.0304L9.82514 12.2122M7.32513 3.86371L2.32514 8.53037C1.32514 9.53037 -0.0748619 12.1304 2.32514 14.5304C4.72514 16.9304 8.32514 20.197 9.82514 21.5304C11.6585 22.197 15.0251 22.4304 13.8251 18.0304L9.82514 12.2122M7.32513 3.86371C6.18229 4.93036 7.51561 8.41927 8.32513 10.0304L9.82514 12.2122" stroke="#000" stroke-width="2"/>
</svg>
